<svg viewBox="0 0 9 9" xmlns="http://www.w3.org/2000/svg">
<title>Configuracoes</title>
<path d="M5.85116 3.89825H5.82196C5.74758 3.898 5.67998 3.85655 5.64586 3.79143C5.64516 3.78133 5.64261 3.77145 5.63853 3.7622C5.60543 3.68705 5.62106 3.60042 5.68866 3.53157C5.85796 3.36197 5.85778 3.08614 5.68831 2.91674C5.68778 2.91624 5.68728 2.91579 5.68676 2.91529C5.60491 2.83401 5.49623 2.78926 5.3807 2.78926C5.38053 2.78926 5.38053 2.78926 5.38035 2.78926C5.26435 2.78936 5.15515 2.83464 5.06345 2.92652C5.00467 2.98399 4.9179 2.99979 4.84197 2.96617C4.76859 2.93477 4.72104 2.86281 4.72069 2.76779C4.72069 2.52806 4.52572 2.33301 4.28591 2.33301C4.04619 2.33301 3.85113 2.52806 3.85113 2.76779V2.79701C3.85086 2.87149 3.80936 2.93899 3.74423 2.97322C3.73421 2.97399 3.72443 2.97637 3.71518 2.98044C3.63986 3.01357 3.55323 2.99809 3.48453 2.93034C3.31478 2.76091 3.03887 2.76109 2.8693 2.93094C2.69994 3.10059 2.70002 3.37642 2.8794 3.5556C2.9369 3.61437 2.9526 3.701 2.91735 3.78123C2.88882 3.85885 2.81697 3.91023 2.72067 3.91218C2.48094 3.91218 2.28589 4.10723 2.28589 4.34696C2.28589 4.58679 2.48094 4.78176 2.72067 4.78176H2.74979C2.82962 4.78209 2.90152 4.82964 2.93327 4.90369C2.96647 4.97909 2.95077 5.06572 2.88327 5.13449C2.80115 5.21672 2.75597 5.32592 2.75607 5.4421C2.75607 5.55707 2.80057 5.66542 2.8814 5.74713C2.88217 5.74795 2.88302 5.7488 2.88387 5.74965C3.05362 5.91915 3.32945 5.91883 3.50845 5.73965C3.56715 5.68205 3.65368 5.66592 3.73418 5.70177C3.81171 5.73013 3.86308 5.80198 3.86503 5.89828C3.86503 6.13808 4.06009 6.33306 4.29981 6.33306C4.53964 6.33306 4.73462 6.13808 4.73462 5.89828V5.86908C4.73494 5.78925 4.78249 5.71743 4.85672 5.68565C4.9325 5.65272 5.01877 5.66832 5.08735 5.73578C5.25703 5.90525 5.53283 5.90493 5.70251 5.73508C5.87201 5.56542 5.87183 5.2896 5.69248 5.11059C5.63491 5.05182 5.61928 4.96519 5.65241 4.88996C5.65253 4.88961 5.65273 4.88929 5.65291 4.88911C5.68413 4.81574 5.75598 4.76819 5.85111 4.76784C6.09091 4.76784 6.28589 4.57286 6.28589 4.33306C6.28594 4.09333 6.09096 3.89825 5.85116 3.89825ZM4.28591 3.72438C4.62152 3.72438 4.89462 3.99745 4.89462 4.33308C4.89462 4.66871 4.62152 4.94179 4.28591 4.94179C3.95031 4.94179 3.67721 4.66869 3.67721 4.33308C3.67721 3.99748 3.95031 3.72438 4.28591 3.72438Z"/>
</svg>
